HIERARCHY
ROOT Hips
{
	OFFSET 0.00000 0.00000 0.00000
	CHANNELS 6 Xposition Yposition Zposition Yrotation Zrotation Xrotation 
	JOINT Lumbar
	{
		OFFSET 0 0 0
		CHANNELS 3 Zrotation Xrotation Yrotation
		JOINT Neck
		{
			OFFSET 0.00 0.2701 0.00
			CHANNELS 3 Zrotation Xrotation Yrotation
			End Site
			{
				OFFSET 0.00 0.1379 0.00
			}
		}
		JOINT RightShoulder
		{
			OFFSET 0.0119 0.2289 0.1181
			CHANNELS 3 Zrotation Xrotation Yrotation
			JOINT RightElbow
			{
				OFFSET 0.00 -0.1475 0.00
				CHANNELS 2 Zrotation Yrotation
				JOINT RightWrist
				{
					OFFSET 0.00 -0.1605 0.00
					CHANNELS 2 Zrotation Xrotation
					End Site
					{
						OFFSET 0.0040 -0.1068 0.0006
					}
				}
			}
		}
		JOINT LeftShoulder
		{
			OFFSET 0.0119 0.2289 -0.1181
			CHANNELS 3 Zrotation Xrotation Yrotation
			JOINT LeftElbow
			{
				OFFSET 0.00 -0.1475 0.00
				CHANNELS 2 Zrotation Yrotation
				JOINT LeftWrist
				{
					OFFSET 0.00 -0.1605 0.00
					CHANNELS 2 Zrotation Xrotation
					End Site
					{
						OFFSET 0.0040 -0.1068 -0.0006
					}
				}
			}
		}
	}
	JOINT RightHip
	{
		OFFSET 0.0316 -0.0424 0.0458
		CHANNELS 3 Zrotation Xrotation Yrotation
		JOINT RightKnee
		{
			OFFSET 0.00 -0.2438 0.00
			CHANNELS 1 Zrotation
			JOINT RightAnkle
			{
				OFFSET 0.00 -0.2449 0.00
				CHANNELS 3 Zrotation Xrotation Yrotation
				End Site
				{
					OFFSET 0.1237 -0.0542 0.0051
				}
			}
		}
	}
	JOINT LeftHip
	{
		OFFSET 0.0316 -0.0424 -0.0458
		CHANNELS 3 Zrotation Xrotation Yrotation
		JOINT LeftKnee
		{
			OFFSET 0.00 -0.2438 0.00
			CHANNELS 1 Zrotation
			JOINT LeftAnkle
			{
				OFFSET 0.00 -0.2449 0.00
				CHANNELS 3 Zrotation Xrotation Yrotation
				End Site
				{
					OFFSET 0.1237 -0.0542 -0.0051
				}
			}
		}
	}
}
MOTION
Frames: 33
Frame Time: 0.02
-0.00094 -0.00033 -0.00127 154.12395 -31.12625 -2.36148 45.62961 2.56138 -5.04322 -11.03269 -5.31419 -0.11277 -22.97787 -8.18846 -11.81015 43.50066 151.13742 20.82343 10.36272 -36.87953 6.9836 16.23201 37.03272 -141.98388 25.36297 -6.54349 32.40335 -3.58167 -7.62937 -20.84386 -10.15328 -5.51048 -3.79134 34.15514 7.78498 1.86358 -26.94921 -10.33879 5.72604 3.91639
-0.00061 -0.00028 -0.00133 154.19062 -31.31484 -2.35669 45.75115 2.52389 -4.97677 -11.00373 -5.33993 -0.11328 -23.15323 -8.81492 -10.46036 43.5186 145.21627 19.43796 9.34401 -36.6773 7.2726 15.26004 36.85339 -137.56105 24.28434 -5.87247 32.65007 -3.56761 -7.63405 -20.89824 -10.15858 -5.51388 -3.79382 34.41943 7.83595 1.99423 -26.97949 -10.31635 5.71151 3.90784
-0.00028 -0.00023 -0.00139 154.25747 -31.50286 -2.35189 45.87224 2.48645 -4.9107 -10.97479 -5.36554 -0.11379 -23.32828 -9.43954 -9.11511 43.53626 139.31339 18.05677 8.32845 -36.47469 7.5609 14.29038 36.67492 -133.15165 23.20891 -5.20347 32.89603 -3.55362 -7.63884 -20.95246 -10.16387 -5.51726 -3.7963 34.68304 7.88691 2.12506 -27.00969 -10.29386 5.69697 3.89929
5e-05 -0.00018 -0.00144 154.32399 -31.69087 -2.34711 45.99339 2.44906 -4.84447 -10.9459 -5.39121 -0.11429 -23.50313 -10.06408 -7.76954 43.5541 133.41048 16.67557 7.31288 -36.27294 7.84904 13.3213 36.49618 -128.74241 22.13358 -4.53451 33.14199 -3.53962 -7.64354 -21.00668 -10.16915 -5.52065 -3.79878 34.94654 7.93775 2.25543 -27.03987 -10.27147 5.68248 3.89077
0.00038 -0.00013 -0.0015 154.39019 -31.87944 -2.34235 46.11502 2.41166 -4.77784 -10.91702 -5.41698 -0.1148 -23.67819 -10.69044 -6.41929 43.57232 127.4893 15.29009 6.29417 -36.07187 8.13784 12.35017 36.3165 -124.31978 21.05508 -3.86354 33.38872 -3.52552 -7.64805 -21.06104 -10.17444 -5.52404 -3.80126 35.2107 7.98854 2.38536 -27.07014 -10.24917 5.66802 3.88227
0.00071 -9e-05 -0.00156 154.4584 -32.06629 -2.33745 46.23497 2.37413 -4.71296 -10.88795 -5.44224 -0.1153 -23.85324 -11.31136 -5.08461 43.58882 121.62522 13.91801 5.28529 -35.86602 8.42505 11.38364 36.14058 -119.93843 19.9862 -3.19873 33.63306 -3.51178 -7.65343 -21.11497 -10.17972 -5.52742 -3.80374 35.47315 8.03985 2.51802 -27.1002 -10.22631 5.65332 3.8736
0.00104 -4e-05 -0.00162 154.52248 -32.25637 -2.33284 46.35817 2.3369 -4.64456 -10.8593 -5.46859 -0.11581 -24.02808 -11.94248 -3.72016 43.60869 115.65305 12.52055 4.2578 -35.67018 8.71511 10.409 35.95723 -115.47916 18.89919 -2.52229 33.8819 -3.49734 -7.6571 -21.1697 -10.18501 -5.53082 -3.80622 35.73869 8.09009 2.6452 -27.13063 -10.20459 5.63911 3.86529
0.00137 1e-05 -0.00168 154.59038 -32.44352 -2.32798 46.47836 2.29937 -4.57952 -10.83023 -5.49379 -0.11632 -24.20319 -12.56433 -2.38302 43.62558 109.77992 11.14637 3.24735 -35.46481 9.0026 9.44168 35.78085 -111.09118 17.82879 -1.8565 34.12666 -3.48353 -7.66225 -21.2237 -10.19032 -5.53421 -3.80871 36.00146 8.14124 2.77714 -27.16073 -10.18185 5.62447 3.85665
0.00169 6e-05 -0.00173 154.663 -32.62698 -2.32276 46.59495 2.26154 -4.51815 -10.80075 -5.51816 -0.11682 -24.37845 -13.17456 -1.07933 43.63828 104.02791 9.80054 2.2578 -35.24869 9.28688 8.48343 35.61252 -106.79072 16.77868 -1.20375 34.36626 -3.47056 -7.66965 -21.27684 -10.19554 -5.53755 -3.81115 36.2607 8.19388 2.91621 -27.19039 -10.15771 5.60922 3.84756
0.00203 0.00012 -0.00182 154.70863 -32.83137 -2.31942 46.73249 2.22564 -4.43436 -10.77394 -5.54905 -0.11733 -24.55232 -13.85081 0.41667 43.67344 97.57901 8.29126 1.14817 -35.09712 9.58941 7.4733 35.39644 -101.9877 15.61174 -0.47603 34.63504 -3.45295 -7.66544 -21.33501 -10.2009 -5.54105 -3.81371 36.53981 8.23909 3.01821 -27.22248 -10.14115 5.59721 3.84093
0.00235 0.00016 -0.00183 154.81105 -32.99175 -2.31223 46.82568 2.18554 -4.39866 -10.74132 -5.56504 -0.11783 -24.7294 -14.38824 1.50694 43.66231 92.60087 7.12712 0.29184 -34.80775 9.85356 6.57261 35.28201 -98.24468 14.69144 0.09351 34.84254 -3.44501 -7.68483 -21.38249 -10.20621 -5.54428 -3.8161 36.77726 8.2992 3.19583 -27.24951 -10.10891 5.57854 3.82922
0.00263 0.00019 -0.00165 155.07193 -33.02879 -2.29348 46.79667 2.13475 -4.48988 -10.69419 -5.54853 -0.11819 -24.91293 -14.53715 1.47316 43.51357 91.69348 6.91687 0.13767 -34.14953 10.01053 5.97502 35.4418 -97.44058 14.45305 0.22462 34.87781 -3.46467 -7.7771 -21.40103 -10.20942 -5.54615 -3.81752 36.89676 8.4071 3.60424 -27.26196 -10.03067 5.54007 3.80253
0.00291 0.00022 -0.0014 155.38911 -33.02191 -2.27113 46.72294 2.07952 -4.63039 -10.64111 -5.51497 -0.11858 -25.09987 -14.54803 1.03415 43.32025 92.25663 7.05201 0.23658 -33.35133 10.12933 5.48707 35.70458 -97.6954 14.46135 0.19761 34.85219 -3.49377 -7.89165 -21.4088 -10.21292 -5.54785 -3.81887 36.97485 8.52868 4.08396 -27.26944 -9.93727 5.49524 3.77097
0.00318 0.00025 -0.00117 155.67915 -33.03705 -2.25094 46.67038 2.02583 -4.75156 -10.58958 -5.48446 -0.11897 -25.28715 -14.62704 0.78727 43.15424 92.12378 7.02457 0.21502 -32.61095 10.26678 4.94679 35.92325 -97.44567 14.35344 0.24591 34.85719 -3.51793 -7.99057 -21.42116 -10.21756 -5.55003 -3.8206 37.07459 8.63951 4.51626 -27.27965 -9.85273 5.45428 3.74231
0.00346 0.00027 -0.00099 155.97691 -33.04421 -2.22817 46.61534 1.97437 -4.85962 -10.54225 -5.47604 -0.11919 -25.46759 -14.68311 0.50503 42.9585 92.11002 7.02124 0.21685 -31.89423 10.39855 4.41621 36.13053 -97.29577 14.26342 0.27966 34.85 -3.5451 -8.11237 -21.43455 -10.21688 -5.55051 -3.8209 37.16332 8.76955 5.01339 -27.28792 -9.7597 5.40903 3.71067
0.00373 0.0003 -0.0007 156.27062 -33.05656 -2.21035 46.55337 1.91694 -5.00704 -10.48557 -5.41473 -0.1199 -25.66167 -14.75405 0.20153 42.81395 92.19783 7.04991 0.23016 -31.09571 10.53321 3.89276 36.3862 -97.18984 14.19451 0.30579 34.85329 -3.56793 -8.19229 -21.44355 -10.22731 -5.55446 -3.82412 37.26389 8.86278 5.39075 -27.299 -9.68092 5.37138 3.68418
0.00397 0.00034 -0.00012 156.54984 -33.10314 -2.20349 46.49618 1.84647 -5.24781 -10.39782 -5.23551 -0.12087 -25.90375 -14.90159 -0.06992 42.82267 92.19198 7.07825 0.21056 -30.10119 10.68488 3.35063 36.74814 -96.93562 14.1238 0.35407 34.9058 -3.57927 -8.14808 -21.44137 -10.26835 -5.56829 -3.83569 37.41864 8.8516 5.43415 -27.31939 -9.64394 5.35494 3.67223
0.00421 0.00037 0.00057 156.82056 -33.15495 -2.20247 46.43121 1.76968 -5.52712 -10.30225 -4.99894 -0.12252 -26.15679 -15.06826 -0.34716 42.88384 92.23984 7.12753 0.1942 -29.03069 10.84108 2.81419 37.15571 -96.69131 14.06581 0.39936 34.9706 -3.58546 -8.06232 -21.43607 -10.32041 -5.5855 -3.85012 37.58473 8.80299 5.35229 -27.34266 -9.62208 5.34662 3.66579
0.00446 0.0004 0.00121 157.08892 -33.19817 -2.20107 46.36121 1.69425 -5.79087 -10.2145 -4.77324 -0.12455 -26.3982 -15.22548 -0.61599 42.92093 92.27191 7.16984 0.17802 -27.9971 10.99511 2.28249 37.54361 -96.44835 14.00158 0.44314 35.02548 -3.59211 -7.99651 -21.43252 -10.36756 -5.60105 -3.86312 37.73808 8.77086 5.31789 -27.36444 -9.5941 5.33546 3.65741
0.00466 0.00044 0.00186 157.38761 -33.26538 -2.18967 46.3255 1.62508 -6.04794 -10.10799 -4.61212 -0.12368 -26.6701 -15.38237 -0.92301 42.95931 92.31865 7.21347 0.16369 -26.94592 11.14731 1.72303 37.93011 -96.21532 13.94739 0.49354 35.09397 -3.60679 -7.92361 -21.42468 -10.41484 -5.61736 -3.87683 37.92162 8.74058 5.32423 -27.38704 -9.56235 5.32051 3.6465
0.00496 0.00046 0.0025 157.61778 -33.28531 -2.20087 46.21752 1.54136 -6.32764 -10.03946 -4.3018 -0.12898 -26.87816 -15.54465 -1.14699 43.00575 92.3288 7.25483 0.14298 -25.91846 11.30611 1.22211 38.32965 -95.95311 13.87274 0.53146 35.14103 -3.6037 -7.85953 -21.42834 -10.46379 -5.63261 -3.88953 38.04602 8.69847 5.21718 -27.4084 -9.54235 5.31543 3.64223
0.00547 0.00042 0.00315 157.68237 -33.1661 -2.2702 45.90862 1.41988 -6.65834 -10.07214 -3.60508 -0.15137 -26.93252 -15.73159 -1.13513 43.08179 92.2148 7.28302 0.10288 -24.94888 11.47179 0.875 38.74792 -95.57745 13.73168 0.5367 35.09877 -3.54951 -7.79233 -21.43756 -10.52052 -5.64672 -3.90051 37.99967 8.62371 4.8094 -27.42811 -9.55024 5.33605 3.65505
0.00608 0.00036 0.00377 157.67376 -33.00067 -2.36252 45.52822 1.28391 -7.01063 -10.14448 -2.75861 -0.17987 -26.91786 -15.92113 -1.03874 43.16091 92.05675 7.30676 0.05522 -24.01221 11.64604 0.58775 39.17823 -95.17248 13.56958 0.53006 35.03986 -3.47783 -7.74123 -21.46358 -10.57756 -5.65925 -3.91009 37.89427 8.5401 4.29524 -27.44605 -9.56968 5.36627 3.67437
0.00667 0.00031 0.00438 157.68453 -32.86148 -2.44637 45.18275 1.15397 -7.35411 -10.20229 -1.97255 -0.20543 -26.91777 -16.10092 -0.98191 43.22519 91.91777 7.33203 0.01031 -23.07733 11.8233 0.27613 39.60667 -94.79544 13.42032 0.52905 35.00675 -3.41664 -7.70875 -21.49957 -10.63042 -5.67071 -3.91907 37.81943 8.46637 3.84092 -27.46321 -9.58444 5.39185 3.69067
0.00716 0.00025 0.00512 157.75458 -32.70055 -2.52256 44.82616 1.02589 -7.69468 -10.24474 -1.21466 -0.23179 -26.98756 -16.31814 -0.91928 43.34664 91.78494 7.36052 -0.03166 -22.06563 11.97161 -0.04921 40.02207 -94.35749 13.25793 0.52706 34.89723 -3.34588 -7.56991 -21.46095 -10.70022 -5.68953 -3.93313 37.7301 8.36619 3.33223 -27.48717 -9.59723 5.41891 3.70743
0.00788 0.00021 0.00556 157.68277 -32.57359 -2.61948 44.47652 0.89088 -8.04601 -10.32911 -0.36592 -0.25783 -26.89705 -16.45694 -0.85031 43.35079 91.6288 7.38068 -0.08131 -21.22701 12.1821 -0.3293 40.46626 -94.03953 13.11756 0.52411 34.94251 -3.2893 -7.6512 -21.58199 -10.73531 -5.693 -3.93651 37.65568 8.32 2.91508 -27.49648 -9.61676 5.44505 3.72469
0.00921 0.00029 0.00526 157.24668 -32.55428 -2.773 44.15879 0.73789 -8.42091 -10.51617 0.71933 -0.28232 -26.36611 -16.38556 -0.7698 43.01482 91.41283 7.38103 -0.15258 -20.82346 12.56251 -0.51974 40.99161 -94.05587 13.04391 0.5235 35.42032 -3.29051 -8.3878 -22.13608 -10.66853 -5.65087 -3.90833 37.64641 8.42102 2.76025 -27.46613 -9.65148 5.46642 3.74203
0.01077 0.0004 0.00465 156.66877 -32.57042 -2.94557 43.852 0.57899 -8.80588 -10.74477 1.88619 -0.3061 -25.67948 -16.23353 -0.68937 42.56309 91.17801 7.37305 -0.23036 -20.60046 13.00461 -0.66209 41.54415 -94.19477 12.99303 0.52194 36.05332 -3.30398 -9.33704 -22.84968 -10.56758 -5.59393 -3.86982 37.65237 8.57769 2.70458 -27.42104 -9.69267 5.48649 3.75957
0.01221 0.00048 0.00415 156.14935 -32.5684 -3.10615 43.54265 0.42429 -9.18661 -10.95656 3.00107 -0.32964 -25.07295 -16.1141 -0.61737 42.17448 90.95255 7.3668 -0.30443 -20.31721 13.41889 -0.81393 42.0813 -94.27991 12.93097 0.51953 36.6157 -3.3024 -10.15409 -23.49431 -10.48643 -5.54623 -3.83764 37.64501 8.71164 2.61541 -27.38242 -9.73113 5.50707 3.7768
0.0137 0.0006 0.0038 155.65185 -32.57268 -3.2818 43.21831 0.26234 -9.56667 -11.1608 4.18495 -0.35577 -24.4222 -16.01295 -0.50311 41.74252 90.71269 7.36731 -0.38431 -19.94047 13.8347 -1.01909 42.63274 -94.35513 12.87119 0.52228 37.18163 -3.34005 -11.11746 -24.12996 -10.38834 -5.4882 -3.79872 37.66247 8.83416 2.47505 -27.34459 -9.76887 5.52836 3.79515
0.01515 0.00066 0.00304 155.07687 -32.57378 -3.43005 42.93162 0.11469 -9.95028 -11.39036 5.24147 -0.37628 -23.83044 -15.8532 -0.48245 41.3722 90.5109 7.35404 -0.45056 -19.80412 14.25916 -1.09851 43.15939 -94.48141 12.81296 0.514 37.77256 -3.29933 -11.8318 -24.81533 -10.31606 -5.44781 -3.77112 37.63277 8.99414 2.4645 -27.3018 -9.80978 5.54772 3.81117
0.01649 0.00055 0.0013 154.31513 -32.54945 -3.49971 42.72159 0.0045 -10.34033 -11.67735 5.93458 -0.38126 -23.41471 -15.56341 -0.68073 41.20871 90.30885 7.28414 -0.50466 -20.26014 14.71482 -0.87644 43.62232 -94.71748 12.74993 0.47651 38.43461 -3.0371 -11.75853 -25.656 -10.33521 -5.46292 -3.77977 37.46774 9.24194 2.80489 -27.24751 -9.85549 5.56193 3.82026
0.01777 0.00037 -0.00086 153.48213 -32.52222 -3.54073 42.5538 -0.09036 -10.73343 -11.98861 6.49448 -0.38061 -23.06872 -15.21571 -0.97964 41.10883 90.16119 7.20345 -0.54099 -20.95675 15.17239 -0.523 44.0572 -95.00555 12.68961 0.42717 39.10889 -2.6958 -11.43549 -26.53064 -10.37936 -5.49569 -3.79972 37.25502 9.52628 3.27043 -27.18897 -9.9046 5.57419 3.82701
